<?xml version="1.0" encoding="utf-8"?>
<svg xmlns="http://www.w3.org/2000/svg" fill="none" height="100%" overflow="visible" preserveAspectRatio="none" style="display: block;" viewBox="0 0 265.066 11.9428" width="100%">
<path d="M3.28125 9.41441V1.33854H0V0.535417H7.54688V1.33854H4.26562V9.41441H3.28125ZM8.91594 9.41441V2.75145H9.86906V9.41441H8.91594ZM9.40031 1.27905C9.2024 1.27905 9.03573 1.21956 8.90031 1.10058C8.77531 0.971682 8.71281 0.817998 8.71281 0.639525C8.71281 0.461053 8.77531 0.312326 8.90031 0.193345C9.03573 0.0644483 9.2024 0 9.40031 0C9.59823 0 9.75969 0.0594907 9.88469 0.178472C10.0201 0.297454 10.0878 0.446181 10.0878 0.624653C10.0878 0.81304 10.0253 0.971682 9.90031 1.10058C9.77531 1.21956 9.60865 1.27905 9.40031 1.27905ZM12.5012 9.41441V2.75145H13.4074V4.55104L13.2668 4.23872C13.4856 3.75287 13.8293 3.3761 14.2981 3.10839C14.7772 2.83077 15.3397 2.69196 15.9856 2.69196C16.6731 2.69196 17.2564 2.85556 17.7356 3.18275C18.2147 3.50995 18.5272 3.99579 18.6731 4.64028L18.2981 4.50642C18.496 3.96109 18.8554 3.52483 19.3762 3.19763C19.897 2.86051 20.522 2.69196 21.2512 2.69196C21.8241 2.69196 22.3189 2.79606 22.7356 3.00428C23.1626 3.2125 23.4908 3.52978 23.7199 3.95613C23.9595 4.37257 24.0793 4.90303 24.0793 5.54751V9.41441H23.1262V5.63675C23.1262 4.93277 22.9491 4.40231 22.5949 4.04537C22.2512 3.68843 21.7564 3.50995 21.1106 3.50995C20.6314 3.50995 20.2147 3.60415 19.8606 3.79253C19.5168 3.98092 19.246 4.25359 19.0481 4.61053C18.8606 4.96748 18.7668 5.40374 18.7668 5.91933V9.41441H17.8293V5.63675C17.8293 4.93277 17.6522 4.40231 17.2981 4.04537C16.9439 3.68843 16.4439 3.50995 15.7981 3.50995C15.3293 3.50995 14.9179 3.60415 14.5637 3.79253C14.2095 3.98092 13.9335 4.25359 13.7356 4.61053C13.5481 4.96748 13.4543 5.40374 13.4543 5.91933V9.41441H12.5012ZM29.6266 9.4739C28.8975 9.4739 28.2569 9.33013 27.7048 9.04259C27.1527 8.74514 26.7204 8.34358 26.4079 7.83791C26.0954 7.32232 25.9391 6.73733 25.9391 6.08293C25.9391 5.41861 26.085 4.83362 26.3766 4.32795C26.6787 3.82228 27.0902 3.42568 27.611 3.13814C28.1319 2.84068 28.7152 2.69196 29.361 2.69196C30.0277 2.69196 30.6162 2.83573 31.1266 3.12326C31.6371 3.40089 32.0381 3.79749 32.3298 4.31308C32.6214 4.81875 32.7673 5.4087 32.7673 6.08293C32.7673 6.12259 32.7621 6.16721 32.7516 6.21678C32.7516 6.25644 32.7516 6.30106 32.7516 6.35064H26.6579V5.68137H32.2516L31.8766 5.94907C31.8766 5.47315 31.7673 5.0468 31.5485 4.67002C31.3298 4.29325 31.0329 4.00075 30.6579 3.79253C30.2829 3.5744 29.8506 3.46534 29.361 3.46534C28.8819 3.46534 28.4496 3.5744 28.0641 3.79253C27.6891 4.00075 27.3923 4.29325 27.1735 4.67002C26.9652 5.0468 26.861 5.48306 26.861 5.97882V6.11267C26.861 6.61834 26.9756 7.06453 27.2048 7.45122C27.4444 7.83791 27.7725 8.14032 28.1891 8.35845C28.6162 8.57658 29.1006 8.68565 29.6423 8.68565C30.0694 8.68565 30.4652 8.61624 30.8298 8.47743C31.2048 8.3287 31.5277 8.10561 31.7985 7.80816L32.3298 8.38819C32.0173 8.74514 31.6266 9.0178 31.1579 9.20619C30.6891 9.38466 30.1787 9.4739 29.6266 9.4739ZM34.6924 9.41441V0H35.6456V9.41441H34.6924ZM38.2777 9.41441V2.75145H39.2308V9.41441H38.2777ZM38.7621 1.27905C38.5641 1.27905 38.3975 1.21956 38.2621 1.10058C38.1371 0.971682 38.0746 0.817998 38.0746 0.639525C38.0746 0.461053 38.1371 0.312326 38.2621 0.193345C38.3975 0.0644483 38.5641 0 38.7621 0C38.96 0 39.1214 0.0594907 39.2464 0.178472C39.3818 0.297454 39.4496 0.446181 39.4496 0.624653C39.4496 0.81304 39.3871 0.971682 39.2621 1.10058C39.1371 1.21956 38.9704 1.27905 38.7621 1.27905ZM41.8629 9.41441V2.75145H42.7692V4.58079L42.6286 4.23872C42.8473 3.75287 43.2015 3.3761 43.6911 3.10839C44.1806 2.83077 44.764 2.69196 45.4411 2.69196C46.014 2.69196 46.514 2.79606 46.9411 3.00428C47.3681 3.2125 47.7015 3.52978 47.9411 3.95613C48.1911 4.37257 48.3161 4.90303 48.3161 5.54751V9.41441H47.3786V5.63675C47.3786 4.93277 47.1911 4.40231 46.8161 4.04537C46.4515 3.68843 45.9358 3.50995 45.2692 3.50995C44.7692 3.50995 44.3317 3.60415 43.9567 3.79253C43.5921 3.98092 43.3108 4.25359 43.1129 4.61053C42.915 4.96748 42.8161 5.40374 42.8161 5.91933V9.41441H41.8629ZM53.8571 9.4739C53.1279 9.4739 52.4873 9.33013 51.9352 9.04259C51.3831 8.74514 50.9508 8.34358 50.6383 7.83791C50.3258 7.32232 50.1696 6.73733 50.1696 6.08293C50.1696 5.41861 50.3154 4.83362 50.6071 4.32795C50.9092 3.82228 51.3206 3.42568 51.8415 3.13814C52.3623 2.84068 52.9456 2.69196 53.5915 2.69196C54.2581 2.69196 54.8467 2.83573 55.3571 3.12326C55.8675 3.40089 56.2685 3.79749 56.5602 4.31308C56.8519 4.81875 56.9977 5.4087 56.9977 6.08293C56.9977 6.12259 56.9925 6.16721 56.9821 6.21678C56.9821 6.25644 56.9821 6.30106 56.9821 6.35064H50.8883V5.68137H56.4821L56.1071 5.94907C56.1071 5.47315 55.9977 5.0468 55.779 4.67002C55.5602 4.29325 55.2633 4.00075 54.8883 3.79253C54.5133 3.5744 54.081 3.46534 53.5915 3.46534C53.1123 3.46534 52.68 3.5744 52.2946 3.79253C51.9196 4.00075 51.6227 4.29325 51.404 4.67002C51.1956 5.0468 51.0915 5.48306 51.0915 5.97882V6.11267C51.0915 6.61834 51.206 7.06453 51.4352 7.45122C51.6748 7.83791 52.0029 8.14032 52.4196 8.35845C52.8467 8.57658 53.331 8.68565 53.8727 8.68565C54.2998 8.68565 54.6956 8.61624 55.0602 8.47743C55.4352 8.3287 55.7581 8.10561 56.029 7.80816L56.5602 8.38819C56.2477 8.74514 55.8571 9.0178 55.3883 9.20619C54.9196 9.38466 54.4092 9.4739 53.8571 9.4739ZM63.1648 7.68918L63.1961 6.52911L67.5555 2.75145H68.7117L65.6336 5.56238L65.1023 5.99369L63.1648 7.68918ZM62.4148 9.41441V0H63.368V9.41441H62.4148ZM67.8523 9.41441L64.9305 5.94907L65.5398 5.25006L69.0086 9.41441H67.8523ZM73.0894 9.4739C72.3602 9.4739 71.7196 9.33013 71.1675 9.04259C70.6154 8.74514 70.1831 8.34358 69.8706 7.83791C69.5581 7.32232 69.4019 6.73733 69.4019 6.08293C69.4019 5.41861 69.5477 4.83362 69.8394 4.32795C70.1415 3.82228 70.5529 3.42568 71.0738 3.13814C71.5946 2.84068 72.1779 2.69196 72.8238 2.69196C73.4904 2.69196 74.079 2.83573 74.5894 3.12326C75.0998 3.40089 75.5008 3.79749 75.7925 4.31308C76.0842 4.81875 76.23 5.4087 76.23 6.08293C76.23 6.12259 76.2248 6.16721 76.2144 6.21678C76.2144 6.25644 76.2144 6.30106 76.2144 6.35064H70.1206V5.68137H75.7144L75.3394 5.94907C75.3394 5.47315 75.23 5.0468 75.0113 4.67002C74.7925 4.29325 74.4956 4.00075 74.1206 3.79253C73.7456 3.5744 73.3133 3.46534 72.8238 3.46534C72.3446 3.46534 71.9123 3.5744 71.5269 3.79253C71.1519 4.00075 70.855 4.29325 70.6363 4.67002C70.4279 5.0468 70.3238 5.48306 70.3238 5.97882V6.11267C70.3238 6.61834 70.4383 7.06453 70.6675 7.45122C70.9071 7.83791 71.2352 8.14032 71.6519 8.35845C72.079 8.57658 72.5633 8.68565 73.105 8.68565C73.5321 8.68565 73.9279 8.61624 74.2925 8.47743C74.6675 8.3287 74.9904 8.10561 75.2613 7.80816L75.7925 8.38819C75.48 8.74514 75.0894 9.0178 74.6206 9.20619C74.1519 9.38466 73.6415 9.4739 73.0894 9.4739ZM80.0458 9.4739C79.4625 9.4739 78.9104 9.39954 78.3895 9.25081C77.8791 9.09217 77.4781 8.89387 77.1864 8.6559L77.6083 7.94201C77.9 8.15023 78.2645 8.3287 78.702 8.47743C79.15 8.61624 79.6187 8.68565 80.1083 8.68565C80.775 8.68565 81.2541 8.5865 81.5458 8.38819C81.8375 8.18989 81.9833 7.92714 81.9833 7.59994C81.9833 7.35206 81.9 7.15872 81.7333 7.01991C81.577 6.8811 81.3635 6.77699 81.0927 6.70758C80.8322 6.63818 80.5354 6.57868 80.202 6.52911C79.8687 6.46962 79.5406 6.41013 79.2177 6.35064C78.8947 6.28123 78.5979 6.18208 78.327 6.05318C78.0666 5.91437 77.8531 5.73094 77.6864 5.50289C77.5197 5.27485 77.4364 4.97243 77.4364 4.59566C77.4364 4.2288 77.5406 3.9016 77.7489 3.61406C77.9677 3.32652 78.2854 3.10343 78.702 2.94479C79.1187 2.77623 79.6239 2.69196 80.2177 2.69196C80.6656 2.69196 81.1135 2.75145 81.5614 2.87043C82.0197 2.97949 82.3947 3.12822 82.6864 3.31661L82.2802 4.0305C81.9677 3.8322 81.6343 3.68843 81.2802 3.59919C80.926 3.50995 80.5718 3.46534 80.2177 3.46534C79.5822 3.46534 79.1135 3.56944 78.8114 3.77766C78.5197 3.98588 78.3739 4.24863 78.3739 4.56591C78.3739 4.82371 78.4572 5.02697 78.6239 5.17569C78.7906 5.31451 79.0093 5.42357 79.2802 5.50289C79.551 5.58221 79.8479 5.64666 80.1708 5.69624C80.4937 5.74581 80.8166 5.81026 81.1395 5.88958C81.4625 5.95899 81.7593 6.05318 82.0302 6.17216C82.301 6.29115 82.5197 6.46466 82.6864 6.69271C82.8531 6.92076 82.9364 7.21325 82.9364 7.5702C82.9364 7.9668 82.8218 8.30887 82.5927 8.59641C82.3635 8.87404 82.0354 9.09217 81.6083 9.25081C81.1812 9.39954 80.6604 9.4739 80.0458 9.4739ZM87.6436 9.4739C86.9145 9.4739 86.2739 9.33013 85.7218 9.04259C85.1697 8.74514 84.7374 8.34358 84.4249 7.83791C84.1124 7.32232 83.9561 6.73733 83.9561 6.08293C83.9561 5.41861 84.102 4.83362 84.3936 4.32795C84.6957 3.82228 85.1072 3.42568 85.628 3.13814C86.1489 2.84068 86.7322 2.69196 87.378 2.69196C88.0447 2.69196 88.6332 2.83573 89.1436 3.12326C89.6541 3.40089 90.0551 3.79749 90.3468 4.31308C90.6384 4.81875 90.7843 5.4087 90.7843 6.08293C90.7843 6.12259 90.7791 6.16721 90.7686 6.21678C90.7686 6.25644 90.7686 6.30106 90.7686 6.35064H84.6749V5.68137H90.2686L89.8936 5.94907C89.8936 5.47315 89.7843 5.0468 89.5655 4.67002C89.3468 4.29325 89.0499 4.00075 88.6749 3.79253C88.2999 3.5744 87.8676 3.46534 87.378 3.46534C86.8989 3.46534 86.4666 3.5744 86.0811 3.79253C85.7061 4.00075 85.4093 4.29325 85.1905 4.67002C84.9822 5.0468 84.878 5.48306 84.878 5.97882V6.11267C84.878 6.61834 84.9926 7.06453 85.2218 7.45122C85.4614 7.83791 85.7895 8.14032 86.2061 8.35845C86.6332 8.57658 87.1176 8.68565 87.6593 8.68565C88.0864 8.68565 88.4822 8.61624 88.8468 8.47743C89.2218 8.3287 89.5447 8.10561 89.8155 7.80816L90.3468 8.38819C90.0343 8.74514 89.6436 9.0178 89.1749 9.20619C88.7061 9.38466 88.1957 9.4739 87.6436 9.4739ZM92.7094 9.41441V0H93.6626V9.41441H92.7094ZM99.2009 9.4739C98.5968 9.4739 98.0707 9.36979 97.6228 9.16157C97.1853 8.95336 96.8416 8.63607 96.5916 8.20972C96.352 7.78337 96.2322 7.25291 96.2322 6.61834V2.75145H97.1853V6.52911C97.1853 7.23308 97.3676 7.7685 97.7322 8.13536C98.1072 8.4923 98.628 8.67078 99.2947 8.67078C99.7738 8.67078 100.196 8.57658 100.56 8.38819C100.925 8.18989 101.201 7.91227 101.388 7.55532C101.576 7.18846 101.67 6.7522 101.67 6.24653V2.75145H102.623V9.41441H101.717V7.58507L101.857 7.91227C101.638 8.40802 101.295 8.79471 100.826 9.07234C100.357 9.34005 99.8155 9.4739 99.2009 9.4739ZM105.251 9.41441V2.75145H106.157V4.56591L106.064 4.25359C106.262 3.74792 106.59 3.36123 107.048 3.09352C107.517 2.82581 108.095 2.69196 108.782 2.69196V3.56944C108.741 3.56944 108.699 3.56944 108.657 3.56944C108.626 3.55953 108.595 3.55457 108.564 3.55457C107.824 3.55457 107.246 3.76775 106.829 4.1941C106.413 4.62045 106.204 5.22527 106.204 6.00856V9.41441H105.251ZM113.502 9.4739C112.898 9.4739 112.372 9.36979 111.924 9.16157C111.486 8.95336 111.143 8.63607 110.893 8.20972C110.653 7.78337 110.533 7.25291 110.533 6.61834V2.75145H111.486V6.52911C111.486 7.23308 111.669 7.7685 112.033 8.13536C112.408 8.4923 112.929 8.67078 113.596 8.67078C114.075 8.67078 114.497 8.57658 114.861 8.38819C115.226 8.18989 115.502 7.91227 115.689 7.55532C115.877 7.18846 115.971 6.7522 115.971 6.24653V2.75145H116.924V9.41441H116.018V7.58507L116.158 7.91227C115.939 8.40802 115.596 8.79471 115.127 9.07234C114.658 9.34005 114.117 9.4739 113.502 9.4739ZM119.552 9.41441V0H120.505V4.58079L120.318 4.23872C120.537 3.75287 120.891 3.3761 121.38 3.10839C121.87 2.83077 122.453 2.69196 123.13 2.69196C123.703 2.69196 124.203 2.79606 124.63 3.00428C125.057 3.2125 125.391 3.52978 125.63 3.95613C125.88 4.37257 126.005 4.90303 126.005 5.54751V9.41441H125.068V5.63675C125.068 4.93277 124.88 4.40231 124.505 4.04537C124.141 3.68843 123.625 3.50995 122.958 3.50995C122.458 3.50995 122.021 3.60415 121.646 3.79253C121.281 3.98092 121 4.25359 120.802 4.61053C120.604 4.96748 120.505 5.40374 120.505 5.91933V9.41441H119.552ZM132.953 9.41441V7.94201L132.921 7.70405V5.23519C132.921 4.67002 132.755 4.23872 132.421 3.94126C132.088 3.63389 131.588 3.48021 130.921 3.48021C130.473 3.48021 130.041 3.55457 129.624 3.7033C129.218 3.84211 128.874 4.0305 128.593 4.26846L128.171 3.58432C128.525 3.29678 128.953 3.07865 129.453 2.92992C129.953 2.77128 130.473 2.69196 131.015 2.69196C131.921 2.69196 132.619 2.90513 133.109 3.33148C133.609 3.75783 133.859 4.40727 133.859 5.2798V9.41441H132.953ZM130.546 9.4739C130.015 9.4739 129.557 9.39458 129.171 9.23594C128.786 9.06738 128.489 8.83933 128.281 8.55179C128.083 8.25434 127.984 7.91723 127.984 7.54045C127.984 7.19342 128.067 6.8811 128.234 6.60347C128.411 6.31593 128.697 6.08789 129.093 5.91933C129.489 5.74086 130.02 5.65162 130.687 5.65162H133.093V6.32089H130.718C130.041 6.32089 129.572 6.43492 129.312 6.66296C129.052 6.89101 128.921 7.17359 128.921 7.51071C128.921 7.88748 129.072 8.18989 129.374 8.41794C129.687 8.64599 130.124 8.76001 130.687 8.76001C131.218 8.76001 131.677 8.64599 132.062 8.41794C132.447 8.18989 132.734 7.85278 132.921 7.4066L133.124 8.03125C132.947 8.46752 132.64 8.8195 132.203 9.08721C131.765 9.345 131.213 9.4739 130.546 9.4739ZM136.426 9.41441V2.75145H137.332V4.58079L137.191 4.23872C137.41 3.75287 137.764 3.3761 138.254 3.10839C138.743 2.83077 139.327 2.69196 140.004 2.69196C140.577 2.69196 141.077 2.79606 141.504 3.00428C141.931 3.2125 142.264 3.52978 142.504 3.95613C142.754 4.37257 142.879 4.90303 142.879 5.54751V9.41441H141.941V5.63675C141.941 4.93277 141.754 4.40231 141.379 4.04537C141.014 3.68843 140.498 3.50995 139.832 3.50995C139.332 3.50995 138.894 3.60415 138.519 3.79253C138.155 3.98092 137.873 4.25359 137.676 4.61053C137.478 4.96748 137.379 5.40374 137.379 5.91933V9.41441H136.426ZM150.818 9.4739C150.235 9.4739 149.682 9.39954 149.162 9.25081C148.651 9.09217 148.25 8.89387 147.959 8.6559L148.38 7.94201C148.672 8.15023 149.037 8.3287 149.474 8.47743C149.922 8.61624 150.391 8.68565 150.88 8.68565C151.547 8.68565 152.026 8.5865 152.318 8.38819C152.61 8.18989 152.755 7.92714 152.755 7.59994C152.755 7.35206 152.672 7.15872 152.505 7.01991C152.349 6.8811 152.136 6.77699 151.865 6.70758C151.604 6.63818 151.307 6.57868 150.974 6.52911C150.641 6.46962 150.313 6.41013 149.99 6.35064C149.667 6.28123 149.37 6.18208 149.099 6.05318C148.839 5.91437 148.625 5.73094 148.459 5.50289C148.292 5.27485 148.209 4.97243 148.209 4.59566C148.209 4.2288 148.313 3.9016 148.521 3.61406C148.74 3.32652 149.057 3.10343 149.474 2.94479C149.891 2.77623 150.396 2.69196 150.99 2.69196C151.438 2.69196 151.886 2.75145 152.334 2.87043C152.792 2.97949 153.167 3.12822 153.459 3.31661L153.052 4.0305C152.74 3.8322 152.406 3.68843 152.052 3.59919C151.698 3.50995 151.344 3.46534 150.99 3.46534C150.354 3.46534 149.886 3.56944 149.584 3.77766C149.292 3.98588 149.146 4.24863 149.146 4.56591C149.146 4.82371 149.229 5.02697 149.396 5.17569C149.563 5.31451 149.781 5.42357 150.052 5.50289C150.323 5.58221 150.62 5.64666 150.943 5.69624C151.266 5.74581 151.589 5.81026 151.912 5.88958C152.235 5.95899 152.531 6.05318 152.802 6.17216C153.073 6.29115 153.292 6.46466 153.459 6.69271C153.625 6.92076 153.709 7.21325 153.709 7.5702C153.709 7.9668 153.594 8.30887 153.365 8.59641C153.136 8.87404 152.807 9.09217 152.38 9.25081C151.953 9.39954 151.432 9.4739 150.818 9.4739ZM158.416 9.4739C157.687 9.4739 157.046 9.33013 156.494 9.04259C155.942 8.74514 155.509 8.34358 155.197 7.83791C154.884 7.32232 154.728 6.73733 154.728 6.08293C154.728 5.41861 154.874 4.83362 155.166 4.32795C155.468 3.82228 155.879 3.42568 156.4 3.13814C156.921 2.84068 157.504 2.69196 158.15 2.69196C158.817 2.69196 159.405 2.83573 159.916 3.12326C160.426 3.40089 160.827 3.79749 161.119 4.31308C161.411 4.81875 161.556 5.4087 161.556 6.08293C161.556 6.12259 161.551 6.16721 161.541 6.21678C161.541 6.25644 161.541 6.30106 161.541 6.35064H155.447V5.68137H161.041L160.666 5.94907C160.666 5.47315 160.556 5.0468 160.338 4.67002C160.119 4.29325 159.822 4.00075 159.447 3.79253C159.072 3.5744 158.64 3.46534 158.15 3.46534C157.671 3.46534 157.239 3.5744 156.853 3.79253C156.478 4.00075 156.181 4.29325 155.963 4.67002C155.754 5.0468 155.65 5.48306 155.65 5.97882V6.11267C155.65 6.61834 155.765 7.06453 155.994 7.45122C156.233 7.83791 156.562 8.14032 156.978 8.35845C157.405 8.57658 157.89 8.68565 158.431 8.68565C158.858 8.68565 159.254 8.61624 159.619 8.47743C159.994 8.3287 160.317 8.10561 160.588 7.80816L161.119 8.38819C160.806 8.74514 160.416 9.0178 159.947 9.20619C159.478 9.38466 158.968 9.4739 158.416 9.4739ZM163.482 9.41441V2.75145H164.388V4.56591L164.294 4.25359C164.492 3.74792 164.82 3.36123 165.278 3.09352C165.747 2.82581 166.325 2.69196 167.013 2.69196V3.56944C166.971 3.56944 166.929 3.56944 166.888 3.56944C166.857 3.55953 166.825 3.55457 166.794 3.55457C166.054 3.55457 165.476 3.76775 165.06 4.1941C164.643 4.62045 164.435 5.22527 164.435 6.00856V9.41441H163.482ZM168.719 9.41441V2.75145H169.673V9.41441H168.719ZM169.204 1.27905C169.006 1.27905 168.839 1.21956 168.704 1.10058C168.579 0.971682 168.516 0.817998 168.516 0.639525C168.516 0.461053 168.579 0.312326 168.704 0.193345C168.839 0.0644483 169.006 0 169.204 0C169.402 0 169.563 0.0594907 169.688 0.178472C169.824 0.297454 169.891 0.446181 169.891 0.624653C169.891 0.81304 169.829 0.971682 169.704 1.10058C169.579 1.21956 169.412 1.27905 169.204 1.27905ZM172.305 9.41441V2.75145H173.211V4.58079L173.07 4.23872C173.289 3.75287 173.643 3.3761 174.133 3.10839C174.622 2.83077 175.206 2.69196 175.883 2.69196C176.456 2.69196 176.956 2.79606 177.383 3.00428C177.81 3.2125 178.143 3.52978 178.383 3.95613C178.633 4.37257 178.758 4.90303 178.758 5.54751V9.41441H177.82V5.63675C177.82 4.93277 177.633 4.40231 177.258 4.04537C176.893 3.68843 176.378 3.50995 175.711 3.50995C175.211 3.50995 174.773 3.60415 174.398 3.79253C174.034 3.98092 173.753 4.25359 173.555 4.61053C173.357 4.96748 173.258 5.40374 173.258 5.91933V9.41441H172.305ZM184.314 11.9428C183.669 11.9428 183.054 11.8535 182.471 11.6751C181.887 11.4966 181.413 11.2437 181.049 10.9166L181.518 10.2324C181.851 10.51 182.257 10.7282 182.736 10.8868C183.226 11.0554 183.742 11.1396 184.283 11.1396C185.169 11.1396 185.82 10.9413 186.236 10.5447C186.653 10.158 186.861 9.54826 186.861 8.71539V7.04965L187.002 5.91933L186.908 4.77413V2.75145H187.814V8.59641C187.814 9.74657 187.518 10.5894 186.924 11.1248C186.33 11.6701 185.46 11.9428 184.314 11.9428ZM184.127 9.16157C183.46 9.16157 182.861 9.02276 182.33 8.74514C181.799 8.46752 181.377 8.08578 181.064 7.59994C180.762 7.1141 180.611 6.5539 180.611 5.91933C180.611 5.28476 180.762 4.72456 181.064 4.23872C181.377 3.75287 181.799 3.3761 182.33 3.10839C182.861 2.83077 183.46 2.69196 184.127 2.69196C184.752 2.69196 185.314 2.8159 185.814 3.06377C186.314 3.30174 186.71 3.66364 187.002 4.14948C187.294 4.63532 187.439 5.22527 187.439 5.91933C187.439 6.61339 187.294 7.20334 187.002 7.68918C186.71 8.1651 186.314 8.53196 185.814 8.78976C185.314 9.03763 184.752 9.16157 184.127 9.16157ZM184.221 8.35845C184.742 8.35845 185.2 8.25434 185.596 8.04612C186.002 7.83791 186.32 7.55037 186.549 7.18351C186.778 6.81665 186.893 6.39525 186.893 5.91933C186.893 5.43349 186.778 5.01209 186.549 4.65515C186.32 4.28829 186.002 4.00075 185.596 3.79253C185.2 3.58432 184.742 3.48021 184.221 3.48021C183.721 3.48021 183.268 3.58432 182.861 3.79253C182.455 4.00075 182.137 4.28829 181.908 4.65515C181.689 5.01209 181.58 5.43349 181.58 5.91933C181.58 6.39525 181.689 6.81665 181.908 7.18351C182.137 7.55037 182.455 7.83791 182.861 8.04612C183.268 8.25434 183.721 8.35845 184.221 8.35845ZM196.155 9.4739C195.499 9.4739 194.993 9.30534 194.639 8.96823C194.285 8.63111 194.108 8.15519 194.108 7.54045V1.27905H195.046V7.48096C195.046 7.87757 195.15 8.17998 195.358 8.38819C195.566 8.59641 195.868 8.70052 196.264 8.70052C196.681 8.70052 197.025 8.5865 197.296 8.35845L197.639 9.01285C197.452 9.17149 197.223 9.29047 196.952 9.36979C196.691 9.4392 196.426 9.4739 196.155 9.4739ZM192.858 3.50995V2.75145H197.186V3.50995H192.858ZM199.347 9.41441V2.75145H200.3V9.41441H199.347ZM199.832 1.27905C199.634 1.27905 199.467 1.21956 199.332 1.10058C199.207 0.971682 199.144 0.817998 199.144 0.639525C199.144 0.461053 199.207 0.312326 199.332 0.193345C199.467 0.0644483 199.634 0 199.832 0C200.03 0 200.191 0.0594907 200.316 0.178472C200.452 0.297454 200.519 0.446181 200.519 0.624653C200.519 0.81304 200.457 0.971682 200.332 1.10058C200.207 1.21956 200.04 1.27905 199.832 1.27905ZM205.729 9.4739C205.063 9.4739 204.464 9.33013 203.933 9.04259C203.401 8.75505 202.985 8.35845 202.683 7.85278C202.38 7.33719 202.229 6.74724 202.229 6.08293C202.229 5.39878 202.38 4.80388 202.683 4.29821C202.985 3.79253 203.401 3.40089 203.933 3.12326C204.464 2.83573 205.063 2.69196 205.729 2.69196C206.344 2.69196 206.891 2.82581 207.37 3.09352C207.86 3.35131 208.245 3.73304 208.526 4.23872C208.818 4.73447 208.964 5.34921 208.964 6.08293C208.964 6.79682 208.818 7.41155 208.526 7.92714C208.245 8.43281 207.86 8.8195 207.37 9.08721C206.891 9.345 206.344 9.4739 205.729 9.4739ZM205.792 8.68565C206.292 8.68565 206.74 8.57658 207.136 8.35845C207.532 8.14032 207.839 7.83791 208.058 7.45122C208.287 7.05461 208.401 6.59851 208.401 6.08293C208.401 5.55743 208.287 5.10133 208.058 4.71464C207.839 4.31804 207.532 4.01562 207.136 3.80741C206.74 3.58927 206.292 3.48021 205.792 3.48021C205.302 3.48021 204.86 3.58927 204.464 3.80741C204.078 4.01562 203.771 4.31804 203.542 4.71464C203.313 5.10133 203.198 5.55743 203.198 6.08293C203.198 6.59851 203.313 7.05461 203.542 7.45122C203.771 7.83791 204.078 8.14032 204.464 8.35845C204.86 8.57658 205.302 8.68565 205.792 8.68565ZM208.433 9.41441V7.4066L208.526 6.06806L208.386 4.71464V0H209.339V9.41441H208.433ZM216.36 9.41441V7.94201L216.328 7.70405V5.23519C216.328 4.67002 216.162 4.23872 215.828 3.94126C215.495 3.63389 214.995 3.48021 214.328 3.48021C213.88 3.48021 213.448 3.55457 213.032 3.7033C212.625 3.84211 212.282 4.0305 212 4.26846L211.578 3.58432C211.933 3.29678 212.36 3.07865 212.86 2.92992C213.36 2.77128 213.88 2.69196 214.422 2.69196C215.328 2.69196 216.026 2.90513 216.516 3.33148C217.016 3.75783 217.266 4.40727 217.266 5.2798V9.41441H216.36ZM213.953 9.4739C213.422 9.4739 212.964 9.39458 212.578 9.23594C212.193 9.06738 211.896 8.83933 211.688 8.55179C211.49 8.25434 211.391 7.91723 211.391 7.54045C211.391 7.19342 211.474 6.8811 211.641 6.60347C211.818 6.31593 212.104 6.08789 212.5 5.91933C212.896 5.74086 213.427 5.65162 214.094 5.65162H216.5V6.32089H214.125C213.448 6.32089 212.979 6.43492 212.719 6.66296C212.459 6.89101 212.328 7.17359 212.328 7.51071C212.328 7.88748 212.479 8.18989 212.782 8.41794C213.094 8.64599 213.532 8.76001 214.094 8.76001C214.625 8.76001 215.084 8.64599 215.469 8.41794C215.854 8.18989 216.141 7.85278 216.328 7.4066L216.532 8.03125C216.354 8.46752 216.047 8.8195 215.61 9.08721C215.172 9.345 214.62 9.4739 213.953 9.4739ZM220.583 7.68918L220.614 6.52911L224.973 2.75145H226.129L223.051 5.56238L222.52 5.99369L220.583 7.68918ZM219.833 9.41441V0H220.786V9.41441H219.833ZM225.27 9.41441L222.348 5.94907L222.958 5.25006L226.426 9.41441H225.27ZM233.513 9.4739C232.857 9.4739 232.352 9.30534 231.998 8.96823C231.644 8.63111 231.467 8.15519 231.467 7.54045V1.27905H232.404V7.48096C232.404 7.87757 232.508 8.17998 232.717 8.38819C232.925 8.59641 233.227 8.70052 233.623 8.70052C234.04 8.70052 234.383 8.5865 234.654 8.35845L234.998 9.01285C234.81 9.17149 234.581 9.29047 234.31 9.36979C234.05 9.4392 233.784 9.4739 233.513 9.4739ZM230.217 3.50995V2.75145H234.545V3.50995H230.217ZM239.437 9.4739C238.708 9.4739 238.067 9.33013 237.515 9.04259C236.963 8.74514 236.531 8.34358 236.218 7.83791C235.906 7.32232 235.749 6.73733 235.749 6.08293C235.749 5.41861 235.895 4.83362 236.187 4.32795C236.489 3.82228 236.901 3.42568 237.421 3.13814C237.942 2.84068 238.526 2.69196 239.171 2.69196C239.838 2.69196 240.427 2.83573 240.937 3.12326C241.447 3.40089 241.848 3.79749 242.14 4.31308C242.432 4.81875 242.578 5.4087 242.578 6.08293C242.578 6.12259 242.572 6.16721 242.562 6.21678C242.562 6.25644 242.562 6.30106 242.562 6.35064H236.468V5.68137H242.062L241.687 5.94907C241.687 5.47315 241.578 5.0468 241.359 4.67002C241.14 4.29325 240.843 4.00075 240.468 3.79253C240.093 3.5744 239.661 3.46534 239.171 3.46534C238.692 3.46534 238.26 3.5744 237.874 3.79253C237.499 4.00075 237.203 4.29325 236.984 4.67002C236.776 5.0468 236.671 5.48306 236.671 5.97882V6.11267C236.671 6.61834 236.786 7.06453 237.015 7.45122C237.255 7.83791 237.583 8.14032 237.999 8.35845C238.427 8.57658 238.911 8.68565 239.453 8.68565C239.88 8.68565 240.276 8.61624 240.64 8.47743C241.015 8.3287 241.338 8.10561 241.609 7.80816L242.14 8.38819C241.828 8.74514 241.437 9.0178 240.968 9.20619C240.499 9.38466 239.989 9.4739 239.437 9.4739ZM248.128 9.4739C247.524 9.4739 246.977 9.345 246.487 9.08721C245.998 8.8195 245.607 8.43281 245.315 7.92714C245.024 7.42147 244.878 6.80673 244.878 6.08293C244.878 5.34921 245.018 4.73447 245.3 4.23872C245.591 3.73304 245.982 3.35131 246.472 3.09352C246.961 2.82581 247.513 2.69196 248.128 2.69196C248.794 2.69196 249.388 2.83573 249.909 3.12326C250.44 3.40089 250.857 3.79749 251.159 4.31308C251.461 4.81875 251.612 5.4087 251.612 6.08293C251.612 6.75716 251.461 7.34711 251.159 7.85278C250.857 8.35845 250.44 8.75505 249.909 9.04259C249.388 9.33013 248.794 9.4739 248.128 9.4739ZM244.503 11.8684V2.75145H245.409V4.75926L245.315 6.0978L245.456 7.43634V11.8684H244.503ZM248.05 8.68565C248.55 8.68565 248.992 8.57658 249.378 8.35845C249.774 8.14032 250.086 7.83791 250.315 7.45122C250.555 7.05461 250.675 6.59851 250.675 6.08293C250.675 5.56734 250.555 5.1162 250.315 4.72951C250.086 4.33291 249.774 4.02554 249.378 3.80741C248.992 3.58927 248.55 3.48021 248.05 3.48021C247.56 3.48021 247.117 3.58927 246.722 3.80741C246.326 4.02554 246.013 4.33291 245.784 4.72951C245.555 5.1162 245.44 5.56734 245.44 6.08293C245.44 6.59851 245.555 7.05461 245.784 7.45122C246.013 7.83791 246.326 8.14032 246.722 8.35845C247.117 8.57658 247.56 8.68565 248.05 8.68565ZM257.89 9.41441V7.94201L257.859 7.70405V5.23519C257.859 4.67002 257.692 4.23872 257.359 3.94126C257.025 3.63389 256.525 3.48021 255.859 3.48021C255.411 3.48021 254.978 3.55457 254.562 3.7033C254.155 3.84211 253.812 4.0305 253.53 4.26846L253.109 3.58432C253.463 3.29678 253.89 3.07865 254.39 2.92992C254.89 2.77128 255.411 2.69196 255.952 2.69196C256.859 2.69196 257.556 2.90513 258.046 3.33148C258.546 3.75783 258.796 4.40727 258.796 5.2798V9.41441H257.89ZM255.484 9.4739C254.952 9.4739 254.494 9.39458 254.109 9.23594C253.723 9.06738 253.426 8.83933 253.218 8.55179C253.02 8.25434 252.921 7.91723 252.921 7.54045C252.921 7.19342 253.004 6.8811 253.171 6.60347C253.348 6.31593 253.635 6.08789 254.03 5.91933C254.426 5.74086 254.958 5.65162 255.624 5.65162H258.03V6.32089H255.655C254.978 6.32089 254.51 6.43492 254.249 6.66296C253.989 6.89101 253.859 7.17359 253.859 7.51071C253.859 7.88748 254.01 8.18989 254.312 8.41794C254.624 8.64599 255.062 8.76001 255.624 8.76001C256.155 8.76001 256.614 8.64599 256.999 8.41794C257.385 8.18989 257.671 7.85278 257.859 7.4066L258.062 8.03125C257.885 8.46752 257.577 8.8195 257.14 9.08721C256.702 9.345 256.15 9.4739 255.484 9.4739ZM263.582 9.4739C262.925 9.4739 262.42 9.30534 262.066 8.96823C261.712 8.63111 261.535 8.15519 261.535 7.54045V1.27905H262.472V7.48096C262.472 7.87757 262.576 8.17998 262.785 8.38819C262.993 8.59641 263.295 8.70052 263.691 8.70052C264.108 8.70052 264.451 8.5865 264.722 8.35845L265.066 9.01285C264.878 9.17149 264.649 9.29047 264.378 9.36979C264.118 9.4392 263.852 9.4739 263.582 9.4739ZM260.285 3.50995V2.75145H264.613V3.50995H260.285Z" fill="var(--fill-0, #444444)" id="Vector"/>
</svg>