<?xml version="1.0" encoding="utf-8"?>
<svg xmlns="http://www.w3.org/2000/svg" fill="none" height="100%" overflow="visible" preserveAspectRatio="none" style="display: block;" viewBox="0 0 15 15" width="100%">
<g clip-path="url(#clip0_0_3370)" id="mingcute:down-fill">
<g id="Group">
<g id="Vector">
</g>
<path clip-rule="evenodd" d="M8.1625 10.0375C7.98672 10.2131 7.74844 10.3117 7.5 10.3117C7.25156 10.3117 7.01328 10.2131 6.8375 10.0375L3.30125 6.5025C3.12546 6.32663 3.02674 6.08813 3.0268 5.83947C3.02685 5.59081 3.12569 5.35235 3.30156 5.17656C3.47743 5.00077 3.71593 4.90205 3.9646 4.90211C4.21326 4.90217 4.45171 5.001 4.6275 5.17688L7.5 8.04937L10.3725 5.17688C10.5492 5.00602 10.786 4.91141 11.0318 4.91343C11.2776 4.91545 11.5128 5.01393 11.6867 5.18767C11.8606 5.36141 11.9593 5.5965 11.9616 5.84231C11.9638 6.08812 11.8694 6.32498 11.6988 6.50188L8.16313 10.0381L8.1625 10.0375Z" fill="var(--fill-0, #444444)" fill-rule="evenodd" id="Vector_2"/>
</g>
</g>
<defs>
<clipPath id="clip0_0_3370">
<rect fill="white" height="15" width="15"/>
</clipPath>
</defs>
</svg>