<?xml version="1.0" encoding="utf-8"?>
<svg xmlns="http://www.w3.org/2000/svg" fill="none" height="100%" overflow="visible" preserveAspectRatio="none" style="display: block;" viewBox="0 0 86.9949 17.1677" width="100%">
<path d="M85.1571 2.67706C79.0533 4.11609 72.7563 5.46987 66.4235 6.80076C60.0908 8.13166 53.6721 9.42513 47.232 10.7082C40.7919 11.9913 34.2444 13.2265 27.6684 14.4513C24.3982 15.0752 21.078 15.6658 17.7792 16.273C16.1521 16.5989 14.3543 16.8461 12.4554 17.005C11.426 17.0857 10.3711 17.1358 9.3069 17.1547C8.11105 17.1835 6.9073 17.1646 5.72905 17.0986C4.80659 17.044 3.93022 16.9371 3.15017 16.784C2.37011 16.6309 1.70169 16.4345 1.18321 16.2062C0.66472 15.9778 0.306359 15.722 0.128655 15.4534C-0.0490484 15.1847 -0.042605 14.9085 0.147621 14.6406C0.147621 14.6094 0.197711 14.5699 0.226334 14.5366C0.547416 14.1999 1.02914 13.8779 1.65747 13.58C2.18612 13.3148 2.80716 13.066 3.51079 12.8376C4.83631 12.4116 6.39004 12.0507 8.1119 11.7688C11.4393 11.174 14.7381 10.5689 18.0798 9.9866C24.7417 8.80335 31.468 7.65337 38.2302 6.51795C44.9923 5.38253 51.826 4.28245 58.7169 3.20942C65.6078 2.13638 72.556 1.09038 79.683 0.12548C80.8329 -0.0194265 82.1236 -0.0395309 83.3202 0.0688271C84.5168 0.177185 85.5397 0.406802 86.2028 0.715884C86.8659 1.02497 87.1251 1.39296 86.9332 1.7529C86.7412 2.11284 86.111 2.44079 85.1571 2.67706Z" fill="var(--fill-0, #009BAD)" id="Vector"/>
</svg>