<?xml version="1.0" encoding="utf-8"?>
<svg xmlns="http://www.w3.org/2000/svg" fill="none" height="100%" overflow="visible" preserveAspectRatio="none" style="display: block;" viewBox="0 0 18 18" width="100%">
<g id="mingcute:down-fill">
<g id="Group">
<g id="Vector">
</g>
<path clip-rule="evenodd" d="M9.79566 10.0377C9.58472 10.2133 9.29878 10.3119 9.00066 10.3119C8.70253 10.3119 8.4166 10.2133 8.20566 10.0377L3.96216 6.50274C3.75121 6.32686 3.63274 6.08836 3.63281 5.8397C3.63288 5.59104 3.75149 5.35259 3.96253 5.1768C4.17358 5.00101 4.45978 4.90229 4.75817 4.90234C5.05657 4.9024 5.34271 5.00124 5.55366 5.17711L9.00066 8.04961L12.4477 5.17711C12.6597 5.00625 12.9439 4.91164 13.2388 4.91366C13.5338 4.91568 13.816 5.01417 14.0247 5.18791C14.2334 5.36165 14.3518 5.59674 14.3545 5.84255C14.3573 6.08836 14.244 6.32522 14.0392 6.50211L9.79641 10.0384L9.79566 10.0377Z" fill="var(--fill-0, #444444)" fill-rule="evenodd" id="Vector_2"/>
</g>
</g>
</svg>