<?xml version="1.0" encoding="utf-8"?>
<svg xmlns="http://www.w3.org/2000/svg" fill="none" height="100%" overflow="visible" preserveAspectRatio="none" style="display: block;" viewBox="0 0 114.707 12.6567" width="100%">
<path d="M5.48438 10.1432C4.33854 10.1432 3.35417 9.93495 2.53125 9.51852C1.71875 9.10208 1.09375 8.51213 0.65625 7.74867C0.21875 6.9852 0 6.09284 0 5.07159C0 4.05033 0.21875 3.16292 0.65625 2.40937C1.09375 1.64591 1.71875 1.05596 2.53125 0.639525C3.35417 0.213175 4.33854 0 5.48438 0C6.17188 0 6.83333 0.0991512 7.46875 0.297454C8.10417 0.495756 8.61458 0.763465 9 1.10058L8.1875 3.12326C7.76042 2.82581 7.33333 2.60272 6.90625 2.45399C6.47917 2.30527 6.04167 2.2309 5.59375 2.2309C4.67708 2.2309 3.98958 2.47878 3.53125 2.97454C3.07292 3.46038 2.84375 4.15939 2.84375 5.07159C2.84375 5.99369 3.07292 6.69767 3.53125 7.18351C3.98958 7.66935 4.67708 7.91227 5.59375 7.91227C6.04167 7.91227 6.47917 7.84286 6.90625 7.70405C7.33333 7.55532 7.76042 7.33223 8.1875 7.03478L9 9.05747C8.61458 9.38466 8.10417 9.64742 7.46875 9.84572C6.83333 10.044 6.17188 10.1432 5.48438 10.1432ZM10.1626 9.99444V0.1636H12.772V4.32795H12.5376C12.7668 3.89169 13.1001 3.55953 13.5376 3.33148C13.9751 3.09352 14.4699 2.97454 15.022 2.97454C15.6053 2.97454 16.0793 3.07865 16.4439 3.28686C16.8189 3.49508 17.0949 3.82228 17.272 4.26846C17.4595 4.71464 17.5533 5.26989 17.5533 5.9342V9.99444H14.9595V6.03831C14.9595 5.75077 14.923 5.52272 14.8501 5.35417C14.7772 5.18561 14.673 5.06663 14.5376 4.99722C14.4126 4.9179 14.2512 4.87824 14.0533 4.87824C13.7928 4.87824 13.5637 4.93277 13.3658 5.04184C13.1678 5.14099 13.0168 5.28972 12.9126 5.48802C12.8189 5.68632 12.772 5.91933 12.772 6.18704V9.99444H10.1626ZM21.5443 10.1432C20.9923 10.1432 20.5027 10.049 20.0756 9.86059C19.6485 9.66229 19.3152 9.39458 19.0756 9.05747C18.836 8.71044 18.7162 8.31879 18.7162 7.88252C18.7162 7.38677 18.8516 6.99512 19.1225 6.70758C19.4037 6.42004 19.8464 6.21182 20.4506 6.08293C21.0548 5.95403 21.8621 5.88958 22.8725 5.88958H23.6693V7.06453H22.8725C22.5808 7.06453 22.3308 7.0794 22.1225 7.10914C21.9141 7.13889 21.7423 7.18351 21.6068 7.243C21.4714 7.30249 21.3673 7.38181 21.2943 7.48096C21.2318 7.5702 21.2006 7.67431 21.2006 7.79329C21.2006 8.0015 21.2787 8.17998 21.435 8.3287C21.6016 8.46752 21.836 8.53692 22.1381 8.53692C22.3777 8.53692 22.5912 8.48735 22.7787 8.38819C22.9766 8.27913 23.1329 8.13536 23.2475 7.95689C23.3621 7.7685 23.4193 7.55532 23.4193 7.31736V5.69624C23.4193 5.35912 23.3308 5.12116 23.1537 4.98235C22.9766 4.84354 22.6641 4.77413 22.2162 4.77413C21.8516 4.77413 21.4402 4.83362 20.9818 4.9526C20.5339 5.06167 20.0964 5.23023 19.6693 5.45828L19.0131 3.82228C19.2631 3.66364 19.5756 3.51987 19.9506 3.39097C20.336 3.25216 20.7371 3.14805 21.1537 3.07865C21.5808 3.00924 21.9766 2.97454 22.3412 2.97454C23.1433 2.97454 23.8048 3.0836 24.3256 3.30174C24.8464 3.51987 25.2371 3.85698 25.4975 4.31308C25.7579 4.75926 25.8881 5.33929 25.8881 6.05318V9.99444H23.4506V8.70052H23.5443C23.4923 8.99797 23.3777 9.25577 23.2006 9.4739C23.0235 9.68212 22.7943 9.84572 22.5131 9.9647C22.2318 10.0837 21.9089 10.1432 21.5443 10.1432ZM27.3691 9.99444V3.13814H29.9004V4.32795H29.7441C29.9733 3.89169 30.3066 3.55953 30.7441 3.33148C31.1816 3.09352 31.6764 2.97454 32.2285 2.97454C32.8118 2.97454 33.2858 3.07865 33.6504 3.28686C34.0254 3.49508 34.3014 3.82228 34.4785 4.26846C34.666 4.71464 34.7597 5.26989 34.7597 5.9342V9.99444H32.166V6.03831C32.166 5.75077 32.1295 5.52272 32.0566 5.35417C31.9837 5.18561 31.8795 5.06663 31.7441 4.99722C31.6191 4.9179 31.4577 4.87824 31.2597 4.87824C30.9993 4.87824 30.7702 4.93277 30.5722 5.04184C30.3743 5.14099 30.2233 5.28972 30.1191 5.48802C30.0254 5.68632 29.9785 5.91933 29.9785 6.18704V9.99444H27.3691ZM39.8289 12.6567C39.0998 12.6567 38.4175 12.5922 37.7821 12.4633C37.1571 12.3344 36.6206 12.1212 36.1727 11.8238L36.8446 10.1432C37.105 10.282 37.3914 10.4059 37.7039 10.515C38.0269 10.6241 38.3498 10.7034 38.6727 10.753C38.9956 10.8025 39.2977 10.8273 39.5789 10.8273C40.1727 10.8273 40.6154 10.7083 40.9071 10.4704C41.2092 10.2324 41.3602 9.86555 41.3602 9.36979V8.4923H41.4852C41.3394 8.87899 41.0373 9.19628 40.5789 9.44416C40.131 9.69203 39.6467 9.81597 39.1258 9.81597C38.48 9.81597 37.9175 9.67716 37.4383 9.39954C36.9592 9.112 36.5842 8.71044 36.3133 8.19485C36.0425 7.67926 35.9071 7.0794 35.9071 6.39525C35.9071 5.71111 36.0425 5.11125 36.3133 4.59566C36.5842 4.08007 36.9592 3.68347 37.4383 3.40584C37.9175 3.11831 38.48 2.97454 39.1258 2.97454C39.6675 2.97454 40.1571 3.09848 40.5946 3.34635C41.0321 3.58432 41.3237 3.89664 41.4696 4.28333H41.3446V3.13814H43.8914V9.07234C43.8914 9.87546 43.7352 10.5398 43.4227 11.0653C43.1102 11.6007 42.6519 11.9973 42.0477 12.2551C41.4435 12.5228 40.7039 12.6567 39.8289 12.6567ZM39.9227 7.98663C40.3498 7.98663 40.6883 7.84782 40.9383 7.5702C41.1987 7.29257 41.3289 6.90093 41.3289 6.39525C41.3289 5.88958 41.1987 5.49794 40.9383 5.22031C40.6883 4.94269 40.3498 4.80388 39.9227 4.80388C39.506 4.80388 39.1675 4.94269 38.9071 5.22031C38.6571 5.49794 38.5321 5.88958 38.5321 6.39525C38.5321 6.90093 38.6571 7.29257 38.9071 7.5702C39.1675 7.84782 39.506 7.98663 39.9227 7.98663ZM49.3476 10.1432C48.4726 10.1432 47.7121 9.9994 47.0663 9.71186C46.4309 9.41441 45.9413 8.99797 45.5976 8.46256C45.2538 7.91723 45.0819 7.2777 45.0819 6.54398C45.0819 5.84001 45.2434 5.22031 45.5663 4.6849C45.8996 4.14948 46.3528 3.73304 46.9257 3.43559C47.4986 3.12822 48.1496 2.97454 48.8788 2.97454C49.608 2.97454 50.2382 3.11831 50.7694 3.40584C51.3007 3.69338 51.7069 4.10486 51.9882 4.64028C52.2799 5.17569 52.4257 5.80035 52.4257 6.51424V7.06453H47.2694V5.88958H50.5194L50.2851 6.06806C50.2851 5.5723 50.1705 5.20048 49.9413 4.9526C49.7226 4.70473 49.4101 4.58079 49.0038 4.58079C48.7017 4.58079 48.4361 4.65019 48.2069 4.789C47.9882 4.9179 47.8215 5.1162 47.7069 5.38391C47.5924 5.64171 47.5351 5.96395 47.5351 6.35064V6.48449C47.5351 6.92076 47.5976 7.27274 47.7226 7.54045C47.858 7.80816 48.0663 8.00646 48.3476 8.13536C48.6392 8.25434 48.9986 8.31383 49.4257 8.31383C49.7903 8.31383 50.1757 8.26426 50.5819 8.1651C50.9882 8.05604 51.3476 7.8974 51.6601 7.68918L52.3163 9.32517C51.9413 9.57305 51.483 9.77135 50.9413 9.92008C50.4101 10.0688 49.8788 10.1432 49.3476 10.1432ZM57.9235 9.99444V0.1636H62.8922C64.0693 0.1636 64.9756 0.436265 65.611 0.981597C66.2464 1.51701 66.5641 2.27056 66.5641 3.24225C66.5641 3.8669 66.4183 4.41223 66.1266 4.87824C65.8454 5.33434 65.4339 5.68632 64.8922 5.9342C64.3506 6.17216 63.6839 6.29115 62.8922 6.29115L63.0172 6.05318H63.7204C64.137 6.05318 64.5068 6.14738 64.8297 6.33576C65.1527 6.52415 65.4183 6.81169 65.6266 7.19838L67.2516 9.99444H64.2829L62.5016 6.87118C62.4183 6.73237 62.3245 6.62826 62.2204 6.55885C62.1162 6.47953 61.9964 6.42004 61.861 6.38038C61.7256 6.34072 61.5797 6.32089 61.4235 6.32089H60.6266V9.99444H57.9235ZM60.6266 4.50642H62.4079C62.9287 4.50642 63.3245 4.41223 63.5954 4.22384C63.8662 4.02554 64.0016 3.72313 64.0016 3.31661C64.0016 2.92 63.8662 2.62255 63.5954 2.42425C63.3245 2.22595 62.9287 2.12679 62.4079 2.12679H60.6266V4.50642ZM71.8155 10.1432C70.9405 10.1432 70.1801 9.9994 69.5343 9.71186C68.8989 9.41441 68.4093 8.99797 68.0655 8.46256C67.7218 7.91723 67.5499 7.2777 67.5499 6.54398C67.5499 5.84001 67.7114 5.22031 68.0343 4.6849C68.3676 4.14948 68.8207 3.73304 69.3936 3.43559C69.9666 3.12822 70.6176 2.97454 71.3468 2.97454C72.0759 2.97454 72.7061 3.11831 73.2374 3.40584C73.7686 3.69338 74.1749 4.10486 74.4561 4.64028C74.7478 5.17569 74.8936 5.80035 74.8936 6.51424V7.06453H69.7374V5.88958H72.9874L72.753 6.06806C72.753 5.5723 72.6384 5.20048 72.4093 4.9526C72.1905 4.70473 71.878 4.58079 71.4718 4.58079C71.1697 4.58079 70.9041 4.65019 70.6749 4.789C70.4561 4.9179 70.2895 5.1162 70.1749 5.38391C70.0603 5.64171 70.003 5.96395 70.003 6.35064V6.48449C70.003 6.92076 70.0655 7.27274 70.1905 7.54045C70.3259 7.80816 70.5343 8.00646 70.8155 8.13536C71.1072 8.25434 71.4666 8.31383 71.8936 8.31383C72.2582 8.31383 72.6436 8.26426 73.0499 8.1651C73.4561 8.05604 73.8155 7.8974 74.128 7.68918L74.7843 9.32517C74.4093 9.57305 73.9509 9.77135 73.4093 9.92008C72.878 10.0688 72.3468 10.1432 71.8155 10.1432ZM80.9966 12.5079V8.83437H81.1529C81.0071 9.23098 80.7154 9.54826 80.2779 9.78623C79.8508 10.0242 79.3716 10.1432 78.8404 10.1432C78.2258 10.1432 77.6789 9.9994 77.1998 9.71186C76.731 9.42432 76.3612 9.01285 76.0904 8.47743C75.8196 7.9321 75.6841 7.29257 75.6841 6.55885C75.6841 5.8053 75.8196 5.16578 76.0904 4.64028C76.3612 4.10486 76.731 3.69338 77.1998 3.40584C77.6789 3.11831 78.2258 2.97454 78.8404 2.97454C79.3925 2.97454 79.8873 3.10343 80.3248 3.36123C80.7623 3.61902 81.0487 3.95613 81.1841 4.37257H81.0591V3.13814H83.606V12.5079H80.9966ZM79.6685 8.31383C80.0644 8.31383 80.3873 8.17502 80.6373 7.8974C80.8977 7.61977 81.0279 7.17359 81.0279 6.55885C81.0279 5.9342 80.8977 5.48802 80.6373 5.22031C80.3873 4.94269 80.0644 4.80388 79.6685 4.80388C79.2727 4.80388 78.9446 4.94269 78.6841 5.22031C78.4341 5.48802 78.3091 5.9342 78.3091 6.55885C78.3091 7.17359 78.4341 7.61977 78.6841 7.8974C78.9446 8.17502 79.2727 8.31383 79.6685 8.31383ZM87.8023 10.1432C87.1773 10.1432 86.6617 10.0341 86.2554 9.81597C85.8596 9.59784 85.5627 9.27064 85.3648 8.83437C85.1669 8.39811 85.0679 7.84782 85.0679 7.18351V3.13814H87.6773V7.243C87.6773 7.47105 87.7086 7.65943 87.7711 7.80816C87.8336 7.95689 87.9325 8.07091 88.0679 8.15023C88.2033 8.21964 88.3752 8.25434 88.5836 8.25434C88.8231 8.25434 89.0315 8.19981 89.2086 8.09074C89.3856 7.98167 89.5263 7.82799 89.6304 7.62969C89.7346 7.43138 89.7867 7.19838 89.7867 6.93067V3.13814H92.3961V9.99444H89.8492V8.74514H90.0836C89.8648 9.20123 89.5627 9.54826 89.1773 9.78623C88.7919 10.0242 88.3336 10.1432 87.8023 10.1432ZM97.8451 10.1432C96.9701 10.1432 96.2097 9.9994 95.5638 9.71186C94.9284 9.41441 94.4388 8.99797 94.0951 8.46256C93.7513 7.91723 93.5795 7.2777 93.5795 6.54398C93.5795 5.84001 93.7409 5.22031 94.0638 4.6849C94.3972 4.14948 94.8503 3.73304 95.4232 3.43559C95.9961 3.12822 96.6472 2.97454 97.3763 2.97454C98.1055 2.97454 98.7357 3.11831 99.267 3.40584C99.7982 3.69338 100.204 4.10486 100.486 4.64028C100.777 5.17569 100.923 5.80035 100.923 6.51424V7.06453H95.767V5.88958H99.017L98.7826 6.06806C98.7826 5.5723 98.668 5.20048 98.4388 4.9526C98.2201 4.70473 97.9076 4.58079 97.5013 4.58079C97.1993 4.58079 96.9336 4.65019 96.7045 4.789C96.4857 4.9179 96.3191 5.1162 96.2045 5.38391C96.0899 5.64171 96.0326 5.96395 96.0326 6.35064V6.48449C96.0326 6.92076 96.0951 7.27274 96.2201 7.54045C96.3555 7.80816 96.5638 8.00646 96.8451 8.13536C97.1368 8.25434 97.4961 8.31383 97.9232 8.31383C98.2878 8.31383 98.6732 8.26426 99.0795 8.1651C99.4857 8.05604 99.8451 7.8974 100.158 7.68918L100.814 9.32517C100.439 9.57305 99.9805 9.77135 99.4388 9.92008C98.9076 10.0688 98.3763 10.1432 97.8451 10.1432ZM104.932 10.1432C104.485 10.1432 104.057 10.1134 103.651 10.0539C103.255 10.0044 102.891 9.92504 102.557 9.81597C102.224 9.70691 101.922 9.57305 101.651 9.41441L102.261 7.80816C102.5 7.93706 102.771 8.05604 103.073 8.1651C103.375 8.26426 103.682 8.34358 103.995 8.40307C104.318 8.45264 104.636 8.47743 104.948 8.47743C105.302 8.47743 105.557 8.42785 105.714 8.3287C105.87 8.22955 105.948 8.10066 105.948 7.94201C105.948 7.8032 105.896 7.69909 105.792 7.62969C105.698 7.55037 105.557 7.49583 105.37 7.46609L103.745 7.21325C103.13 7.1141 102.656 6.90588 102.323 6.5886C102 6.2614 101.839 5.84001 101.839 5.32442C101.839 4.83858 101.979 4.42215 102.261 4.07512C102.552 3.72809 102.948 3.46038 103.448 3.27199C103.959 3.07369 104.542 2.97454 105.198 2.97454C105.542 2.97454 105.886 3.00428 106.229 3.06377C106.573 3.11335 106.901 3.19267 107.214 3.30174C107.526 3.40089 107.807 3.5397 108.057 3.71817L107.417 5.29468C107.229 5.16578 107.005 5.05671 106.745 4.96748C106.495 4.86833 106.235 4.789 105.964 4.72951C105.703 4.67002 105.459 4.64028 105.229 4.64028C104.834 4.64028 104.552 4.68985 104.386 4.789C104.219 4.88816 104.136 5.01705 104.136 5.17569C104.136 5.30459 104.177 5.4087 104.261 5.48802C104.354 5.56734 104.495 5.61692 104.682 5.63675L106.307 5.90446C106.932 6.00361 107.412 6.20687 107.745 6.51424C108.089 6.8216 108.261 7.243 108.261 7.77841C108.261 8.28409 108.12 8.71539 107.839 9.07234C107.568 9.41937 107.182 9.68708 106.682 9.87546C106.182 10.0539 105.599 10.1432 104.932 10.1432ZM113.035 10.1432C111.941 10.1432 111.129 9.90521 110.597 9.42928C110.066 8.94344 109.801 8.20972 109.801 7.22812V4.9526H108.457V3.13814H109.801V1.13032H112.41V3.13814H114.472V4.9526H112.41V7.15376C112.41 7.49088 112.493 7.74371 112.66 7.91227C112.837 8.07091 113.113 8.15023 113.488 8.15023C113.603 8.15023 113.728 8.14032 113.863 8.12049C114.009 8.09074 114.17 8.05604 114.347 8.01638L114.707 9.8011C114.478 9.91017 114.212 9.99444 113.91 10.0539C113.618 10.1134 113.327 10.1432 113.035 10.1432Z" fill="var(--fill-0, white)" id="Vector"/>
</svg>