<?xml version="1.0" encoding="utf-8"?>
<svg xmlns="http://www.w3.org/2000/svg" fill="none" height="100%" overflow="visible" preserveAspectRatio="none" style="display: block;" viewBox="0 0 48.2015 48.2014" width="100%">
<path d="M48.2013 24.1086C48.1995 29.7313 46.2318 35.1764 42.6388 39.5013C39.0459 43.8263 34.0538 46.7589 28.5267 47.7915C22.9997 48.8241 17.2855 47.8917 12.3734 45.1557C7.46126 42.4197 3.66032 38.0524 1.62853 32.8096C-0.403262 27.5669 -0.538021 21.7787 1.24757 16.4471C3.03315 11.1155 6.6267 6.57595 11.4062 3.61433C16.1857 0.652703 21.8502 -0.544614 27.4193 0.229633C32.9885 1.00388 38.1116 3.70096 41.902 7.85401C41.9093 7.85064 41.9173 7.84889 41.9254 7.84889C41.9335 7.84889 41.9415 7.85064 41.9488 7.85401C45.9902 12.301 48.2207 18.0996 48.2013 24.1086Z" fill="var(--fill-0, white)" id="Vector" opacity="0.6"/>
</svg>